<svg width="20" height="20" viewBox="0 0 20 20" fill="none" xmlns="http://www.w3.org/2000/svg">
<path fill-rule="evenodd" clip-rule="evenodd" d="M3 0C1.34315 0 0 1.34315 0 3V17C0 18.6569 1.34315 20 3 20H17C18.6569 20 20 18.6569 20 17V3C20 1.34315 18.6569 0 17 0H3ZM12.432 9.754V7.612H10.864V6.94C10.864 6.45 11.158 6.142 11.648 6.142C11.83 6.142 12.11 6.142 12.292 6.17V4.084C11.984 4.028 11.578 4 11.158 4C9.38 4 8.372 5.19 8.372 6.8V7.612H7V9.754H8.372V15.816H10.864V9.754H12.432Z" fill="white"/>
</svg>
