<svg width="14" height="14" viewBox="0 0 14 14" fill="none" xmlns="http://www.w3.org/2000/svg">
<path fill-rule="evenodd" clip-rule="evenodd" d="M8.84668 9.75582C7.9163 10.4901 6.74142 10.9283 5.46419 10.9283C2.4464 10.9283 0 8.48194 0 5.46416C0 2.44639 2.4464 0 5.46419 0C8.48197 0 10.9284 2.44639 10.9284 5.46416C10.9284 6.74142 10.4901 7.91633 9.75581 8.84671L13.8117 12.9026C14.0628 13.1536 14.0628 13.5607 13.8117 13.8117C13.5607 14.0628 13.1536 14.0628 12.9026 13.8117L8.84668 9.75582ZM9.64268 5.46416C9.64268 7.77187 7.77191 9.64264 5.46419 9.64264C3.15647 9.64264 1.28569 7.77187 1.28569 5.46416C1.28569 3.15645 3.15647 1.28569 5.46419 1.28569C7.77191 1.28569 9.64268 3.15645 9.64268 5.46416Z" fill="#549F78"/>
</svg>
